<svg width="81" height="81" viewBox="0 0 81 81" fill="none" xmlns="http://www.w3.org/2000/svg">
<path d="M40.4475 81C62.786 81 80.8949 62.8675 80.8949 40.5C80.8949 18.1325 62.786 0 40.4475 0C18.1089 0 0 18.1325 0 40.5C0 62.8675 18.1089 81 40.4475 81Z" fill="url(#paint0_linear_2918_23550)"/>
<path d="M27.7461 78.9297C36.4022 81.8016 45.7715 81.6748 54.3469 78.5695L40.1994 74.5L27.7461 78.9297Z" fill="#6A80FF"/>
<path d="M12.9246 37.528V46.9529L17.762 52.8653L19.384 62.8136L28.5983 73.3761L29.6707 61.9872L38.4715 54.6223L40.3591 45.9683L27.9209 37.0854L13.6591 35.7187L10.9698 29.9965L27.9193 16.3456L35.7284 0.28125C19.8782 2.00297 5.88526 13.9658 1.64453 29.3284L12.9246 37.528Z" fill="#6A80FF"/>
<path d="M50.8477 16.9175L54.7791 19.814L50.9451 25.548L53.8513 37.3173L64.7851 38.4584L67.0307 46.5772L64.0388 53.2588L66.0138 64.6713C77.7224 56.5121 74.6616 59.0484 80.5378 46.419C83.0692 30.4725 75.0297 13.6643 61.0587 5.60938L50.8477 16.9175Z" fill="#6A80FF"/>
<defs>
<linearGradient id="paint0_linear_2918_23550" x1="19.3375" y1="80.9999" x2="66.2325" y2="17.4917" gradientUnits="userSpaceOnUse">
<stop stop-color="#182049"/>
<stop offset="1" stop-color="#4863F7"/>
</linearGradient>
</defs>
</svg>
