<svg width="101" height="86" viewBox="0 0 101 86" fill="none" xmlns="http://www.w3.org/2000/svg">
<path opacity="0.2" d="M52.0306 0.0331268C62.0539 0.0331268 70.1794 18.9826 70.1794 42.3579C70.1794 65.7332 62.0539 84.6826 52.0306 84.6826C42.0073 84.6826 33.8818 65.7332 33.8818 42.3579C33.8818 18.9826 42.0073 0.0331268 52.0306 0.0331268Z" fill="url(#paint0_linear_437_5185)"/>
<path opacity="0.2" d="M18.5638 72.286C25.6514 78.625 46.3786 70.3644 64.8595 53.8356C83.3403 37.3067 92.5764 18.7687 85.4889 12.4298C78.4013 6.09087 57.6741 14.3514 39.1932 30.8803C20.7124 47.4091 11.4763 65.9471 18.5638 72.286Z" fill="url(#paint1_linear_437_5185)"/>
<path opacity="0.2" d="M4.70328 42.3568C4.70328 51.3215 25.8906 58.5887 52.0264 58.5887C78.1623 58.5887 99.3496 51.3215 99.3496 42.3569C99.3496 33.3922 78.1623 26.125 52.0264 26.125C25.8906 26.125 4.70328 33.3922 4.70328 42.3568Z" fill="url(#paint2_linear_437_5185)"/>
<path opacity="0.2" d="M19.0249 11.7969C11.7403 18.3121 21.2332 37.3655 40.2278 54.3538C59.2225 71.3422 80.526 79.8324 87.8106 73.3173C95.0952 66.8021 85.6023 47.7487 66.6076 30.7603C47.613 13.772 26.3095 5.28175 19.0249 11.7969Z" fill="url(#paint3_linear_437_5185)"/>
<g filter="url(#filter0_d_437_5185)">
<path d="M52.756 59.6147C62.2913 59.6147 70.0212 51.8893 70.0212 42.3596C70.0212 32.8299 62.2913 25.1045 52.756 25.1045C43.2206 25.1045 35.4907 32.8299 35.4907 42.3596C35.4907 51.8893 43.2206 59.6147 52.756 59.6147Z" fill="white"/>
</g>
<path d="M33.6841 77.7179C36.9264 77.7179 39.5548 75.091 39.5548 71.8506C39.5548 68.6102 36.9264 65.9834 33.6841 65.9834C30.4419 65.9834 27.8135 68.6102 27.8135 71.8506C27.8135 75.091 30.4419 77.7179 33.6841 77.7179Z" fill="#3249CB"/>
<path d="M58.4819 69.8699C59.4446 69.8699 60.225 69.09 60.225 68.1278C60.225 67.1657 59.4446 66.3857 58.4819 66.3857C57.5192 66.3857 56.7388 67.1657 56.7388 68.1278C56.7388 69.09 57.5192 69.8699 58.4819 69.8699Z" fill="#4863F7"/>
<path d="M62.3514 16.6486C63.9399 16.6486 65.2277 15.3616 65.2277 13.774C65.2277 12.1864 63.9399 10.8994 62.3514 10.8994C60.7629 10.8994 59.4751 12.1864 59.4751 13.774C59.4751 15.3616 60.7629 16.6486 62.3514 16.6486Z" fill="#4863F7"/>
<path d="M33.8286 24.0177C36.9883 24.0177 39.5498 21.4577 39.5498 18.2999C39.5498 15.142 36.9883 12.582 33.8286 12.582C30.6689 12.582 28.1074 15.142 28.1074 18.2999C28.1074 21.4577 30.6689 24.0177 33.8286 24.0177Z" fill="#6A80FF"/>
<path d="M16.9582 53.1524C15.0752 54.1949 12.871 54.4985 10.776 54.0039C8.68101 53.5093 6.84572 52.2521 5.6285 50.4777C4.41129 48.7033 3.89955 46.5391 4.19323 44.4079C4.48692 42.2766 5.56492 40.3313 7.21674 38.9518C7.36622 38.8313 7.52052 38.7048 7.68085 38.5904C8.67268 37.8705 9.80619 37.3694 11.0063 37.1203C12.2065 36.8711 13.4459 36.8795 14.6426 37.145C15.8392 37.4105 16.9658 37.927 17.9477 38.6603C18.9296 39.3936 19.7445 40.327 20.3383 41.3987C20.9143 42.4368 21.2696 43.5825 21.382 44.7641C21.4944 45.9458 21.3616 47.1379 20.9917 48.2659C20.9314 48.453 20.8643 48.6369 20.7904 48.8176C20.1868 50.3229 19.1686 51.6262 17.8539 52.5765C17.5677 52.7871 17.2686 52.9795 16.9582 53.1524Z" fill="#3249CB"/>
<path d="M17.8519 52.5819C15.4526 51.2381 13.1375 49.7494 10.9192 48.1243C8.68919 46.5146 6.55882 44.7713 4.53984 42.904C1.28505 39.8487 -0.523152 37.3139 0.133832 36.3983C0.790817 35.4827 3.76472 36.426 7.6777 38.5874C7.51737 38.7018 7.36307 38.8283 7.21359 38.9488C4.76045 37.6235 3.01854 37.0477 2.65328 37.55C2.28802 38.0524 3.32111 39.456 5.23902 41.3125C6.89414 42.9161 9.2171 44.8473 11.8872 46.7894C14.5574 48.7315 17.1118 50.3447 19.1466 51.4266C21.5045 52.6783 23.1693 53.2169 23.5261 52.7277C23.8829 52.2386 22.8028 50.7531 20.7909 48.8255C20.864 48.6448 20.9311 48.4608 20.9922 48.2737C24.247 51.329 26.0552 53.8638 25.3982 54.7795C24.7412 55.6951 21.7649 54.7433 17.8519 52.5819Z" fill="#6A80FF"/>
<path d="M81.8141 69.8644C86.4311 69.8644 90.174 66.1238 90.174 61.5094C90.174 56.895 86.4311 53.1543 81.8141 53.1543C77.197 53.1543 73.4541 56.895 73.4541 61.5094C73.4541 66.1238 77.197 69.8644 81.8141 69.8644Z" fill="#6A80FF"/>
<path d="M85.6123 38.4269C88.7707 38.4269 91.3311 35.8681 91.3311 32.7115C91.3311 29.555 88.7707 26.9961 85.6123 26.9961C82.4539 26.9961 79.8936 29.555 79.8936 32.7115C79.8936 35.8681 82.4539 38.4269 85.6123 38.4269Z" fill="#3249CB"/>
<defs>
<filter id="filter0_d_437_5185" x="13.8932" y="4.18185" width="77.7254" height="77.7053" filterUnits="userSpaceOnUse" color-interpolation-filters="sRGB">
<feFlood flood-opacity="0" result="BackgroundImageFix"/>
<feColorMatrix in="SourceAlpha" type="matrix" values="0 0 0 0 0 0 0 0 0 0 0 0 0 0 0 0 0 0 127 0" result="hardAlpha"/>
<feOffset dy="0.674924"/>
<feGaussianBlur stdDeviation="10.7988"/>
<feComposite in2="hardAlpha" operator="out"/>
<feColorMatrix type="matrix" values="0 0 0 0 0.415686 0 0 0 0 0.501961 0 0 0 0 1 0 0 0 1 0"/>
<feBlend mode="normal" in2="BackgroundImageFix" result="effect1_dropShadow_437_5185"/>
<feBlend mode="normal" in="SourceGraphic" in2="effect1_dropShadow_437_5185" result="shape"/>
</filter>
<linearGradient id="paint0_linear_437_5185" x1="44.3682" y1="78.5819" x2="46.4476" y2="64.0194" gradientUnits="userSpaceOnUse">
<stop stop-color="#182049"/>
<stop offset="1" stop-color="#4863F7"/>
</linearGradient>
<linearGradient id="paint1_linear_437_5185" x1="19.4926" y1="27.5554" x2="47.9993" y2="60.0308" gradientUnits="userSpaceOnUse">
<stop stop-color="#182049"/>
<stop offset="1" stop-color="#4863F7"/>
</linearGradient>
<linearGradient id="paint2_linear_437_5185" x1="92.5284" y1="35.5038" x2="76.4272" y2="38.378" gradientUnits="userSpaceOnUse">
<stop stop-color="#182049"/>
<stop offset="1" stop-color="#4863F7"/>
</linearGradient>
<linearGradient id="paint3_linear_437_5185" x1="88.4219" y1="63.9029" x2="75.8503" y2="53.7169" gradientUnits="userSpaceOnUse">
<stop stop-color="#182049"/>
<stop offset="1" stop-color="#4863F7"/>
</linearGradient>
</defs>
</svg>
