<svg width="101" height="76" viewBox="0 0 101 76" fill="none" xmlns="http://www.w3.org/2000/svg">
<path d="M67.0103 67.7058C59.5908 71.824 50.9057 73.0233 42.651 71.0695C34.3963 69.1158 27.1648 64.1493 22.3687 57.1399C17.5726 50.1305 15.5562 41.5816 16.7134 33.1625C17.8706 24.7435 22.1182 17.0589 28.6267 11.6094C29.2157 11.1335 29.8237 10.6338 30.4554 10.1817C34.3635 7.33809 38.8297 5.35865 43.5586 4.37439C48.2875 3.39013 53.1711 3.42351 57.8862 4.4723C62.6012 5.52109 67.0401 7.56138 70.9091 10.4581C74.7781 13.3548 77.9889 17.0419 80.3289 21.2753C82.5982 25.376 83.9981 29.902 84.4411 34.5698C84.8841 39.2377 84.3606 43.9469 82.9033 48.4026C82.6658 49.1419 82.4014 49.8684 82.1101 50.5823C79.7317 56.5283 75.7197 61.6769 70.5394 65.431C69.412 66.2629 68.2333 67.0227 67.0103 67.7058V67.7058Z" fill="url(#paint0_linear_2725_41363)"/>
<g opacity="0.8">
<path d="M48.653 69.0754C48.6542 70.0542 48.5457 71.03 48.3296 71.9846C39.4932 71.4215 31.2234 67.4309 25.275 60.8595C26.9742 58.7313 29.2913 57.1845 31.906 56.433C34.5206 55.6814 37.3038 55.7623 39.8706 56.6644C42.4374 57.5664 44.6612 59.2452 46.2345 61.4685C47.8077 63.6918 48.6529 66.3499 48.653 69.0754Z" fill="url(#paint1_linear_2725_41363)"/>
<path d="M39.3455 42.1042C39.3455 43.7834 38.8485 45.4249 37.9174 46.8211C36.9864 48.2173 35.663 49.3055 34.1146 49.9481C32.5663 50.5907 30.8626 50.7588 29.2189 50.4312C27.5752 50.1036 26.0653 49.295 24.8803 48.1077C23.6952 46.9203 22.8882 45.4075 22.5613 43.7606C22.2343 42.1136 22.4021 40.4066 23.0435 38.8552C23.6848 37.3038 24.7709 35.9778 26.1643 35.0449C27.5578 34.112 29.1961 33.6141 30.872 33.6141C33.1193 33.6141 35.2746 34.5086 36.8636 36.1008C38.4527 37.693 39.3455 39.8525 39.3455 42.1042Z" fill="url(#paint2_linear_2725_41363)"/>
<path d="M80.9741 22.374C78.1117 22.5408 75.4212 23.7977 73.4535 25.8873C71.4858 27.9769 70.3899 30.7412 70.39 33.6141C70.39 33.9486 70.4046 34.2802 70.4339 34.6089C70.2609 34.6089 70.0864 34.6018 69.912 34.6018C65.6744 34.6018 61.5578 36.018 58.214 38.6262C54.8702 41.2344 52.4901 44.8856 51.4505 49.0017C50.4109 53.1179 50.7713 57.4639 52.4745 61.3518C54.1777 65.2396 57.1265 68.4472 60.8541 70.4668C66.6602 68.6164 71.8673 65.2447 75.9362 60.7008C80.0051 56.1569 82.7879 50.606 83.9967 44.6226C84.2094 43.5652 84.3721 42.4908 84.4846 41.3993C84.6049 40.2236 84.665 39.0425 84.6648 37.8606C84.6733 32.4787 83.4085 27.1714 80.9741 22.374Z" fill="url(#paint3_linear_2725_41363)"/>
<path d="M73.97 12.9969C69.5931 14.6417 64.9557 15.4814 60.2811 15.4754C51.4357 15.4895 42.8512 12.4738 35.9512 6.92844C42.162 3.99434 49.1112 3.00395 55.8922 4.08647C62.6732 5.169 68.9711 8.27417 73.9644 12.9969H73.97Z" fill="url(#paint4_linear_2725_41363)"/>
<path d="M47.7382 28.2392C47.7384 29.0199 47.5077 29.7832 47.0751 30.4326C46.6425 31.0819 46.0274 31.5882 45.3077 31.8873C44.588 32.1865 43.7959 32.2651 43.0316 32.1133C42.2672 31.9614 41.565 31.586 41.0136 31.0343C40.4622 30.4826 40.0865 29.7796 39.9339 29.014C39.7812 28.2484 39.8586 27.4546 40.1561 26.733C40.4536 26.0115 40.958 25.3945 41.6055 24.9601C42.2529 24.5257 43.0144 24.2934 43.7936 24.2926C44.3113 24.2918 44.8241 24.3933 45.3027 24.5914C45.7812 24.7894 46.2161 25.0799 46.5825 25.4465C46.9488 25.813 47.2395 26.2484 47.4378 26.7276C47.6361 27.2068 47.7382 27.7204 47.7382 28.2392Z" fill="url(#paint5_linear_2725_41363)"/>
</g>
<path d="M70.6189 65.5649C61.1278 60.2351 51.9694 54.3313 43.1944 47.8863C34.3728 41.5024 25.9455 34.5888 17.9588 27.1832C5.08343 15.0662 -2.06949 5.01332 0.529417 1.38205C3.12833 -2.24923 14.8925 1.49193 30.3716 10.0637C29.7373 10.5176 29.1269 11.0193 28.5356 11.4971C18.8315 6.24126 11.9408 3.95739 10.4959 5.94981C9.05099 7.94224 13.1377 13.5086 20.7246 20.8715C27.2719 27.231 36.4611 34.8901 47.0237 42.5923C57.5862 50.2944 67.6909 56.6921 75.7404 60.9828C85.0679 65.9471 91.6533 68.0829 93.0649 66.143C94.4764 64.2032 90.2037 58.3119 82.2448 50.6671C82.5341 49.9504 82.7996 49.221 83.0412 48.4788C95.9166 60.5958 103.069 70.6487 100.471 74.28C97.8717 77.9112 86.0979 74.1366 70.6189 65.5649Z" fill="#6A80FF"/>
<defs>
<linearGradient id="paint0_linear_2725_41363" x1="124.37" y1="37.8224" x2="21.6882" y2="47.5264" gradientUnits="userSpaceOnUse">
<stop stop-color="white"/>
<stop offset="1" stop-color="#6A80FF"/>
</linearGradient>
<linearGradient id="paint1_linear_2725_41363" x1="17.2773" y1="51.5954" x2="84.6812" y2="34.2973" gradientUnits="userSpaceOnUse">
<stop stop-color="#182049"/>
<stop offset="1" stop-color="#6A80FF"/>
</linearGradient>
<linearGradient id="paint2_linear_2725_41363" x1="17.2773" y1="51.5954" x2="84.6812" y2="34.2973" gradientUnits="userSpaceOnUse">
<stop stop-color="#182049"/>
<stop offset="1" stop-color="#6A80FF"/>
</linearGradient>
<linearGradient id="paint3_linear_2725_41363" x1="17.2773" y1="51.5954" x2="84.6812" y2="34.2973" gradientUnits="userSpaceOnUse">
<stop stop-color="#182049"/>
<stop offset="1" stop-color="#6A80FF"/>
</linearGradient>
<linearGradient id="paint4_linear_2725_41363" x1="17.2773" y1="51.5954" x2="84.6812" y2="34.2973" gradientUnits="userSpaceOnUse">
<stop stop-color="#182049"/>
<stop offset="1" stop-color="#6A80FF"/>
</linearGradient>
<linearGradient id="paint5_linear_2725_41363" x1="17.2773" y1="51.5954" x2="84.6812" y2="34.2973" gradientUnits="userSpaceOnUse">
<stop stop-color="#182049"/>
<stop offset="1" stop-color="#6A80FF"/>
</linearGradient>
</defs>
</svg>
